<svg width="18" height="19" viewBox="0 0 18 19" fill="none" xmlns="http://www.w3.org/2000/svg">
<path d="M3.38122 14.0937C2.68122 14.0937 2.23747 13.8562 1.95622 13.575C1.40622 13.025 1.01872 11.8562 2.25622 9.37497L2.79997 8.29372C2.86872 8.14997 2.86872 7.84997 2.79997 7.70622L2.25622 6.62497C1.01247 4.14372 1.40622 2.96872 1.95622 2.42497C2.49997 1.87497 3.67497 1.48122 6.14997 2.72497L11.5 5.39997C12.8312 6.06247 13.5625 6.98747 13.5625 7.99997C13.5625 9.01247 12.8312 9.93747 11.5062 10.6L6.15622 13.275C4.94372 13.8812 4.04372 14.0937 3.38122 14.0937ZM3.38122 2.84372C3.04372 2.84372 2.78122 2.92497 2.61872 3.08747C2.16247 3.53747 2.34372 4.70622 3.09372 6.19997L3.63747 7.28747C3.83747 7.69372 3.83747 8.30622 3.63747 8.71247L3.09372 9.79372C2.34372 11.2937 2.16247 12.4562 2.61872 12.9062C3.06872 13.3625 4.23747 13.1812 5.73747 12.4312L11.0875 9.75622C12.0687 9.26872 12.625 8.62497 12.625 7.99372C12.625 7.36247 12.0625 6.71872 11.0812 6.23122L5.73122 3.56247C4.78122 3.08747 3.96247 2.84372 3.38122 2.84372Z" fill="#1252CD"/>
<path d="M6.7749 8.46875H3.3999C3.14365 8.46875 2.93115 8.25625 2.93115 8C2.93115 7.74375 3.14365 7.53125 3.3999 7.53125H6.7749C7.03115 7.53125 7.24365 7.74375 7.24365 8C7.24365 8.25625 7.03115 8.46875 6.7749 8.46875Z" fill="#1252CD"/>
</svg>
