<svg width="30" height="30" viewBox="0 0 30 45" fill="none" xmlns="http://www.w3.org/2000/svg">
<g clip-path="url(#clip0_3174_15376)">
<mask id="mask0_3174_15376" style="mask-type:luminance" maskUnits="userSpaceOnUse" x="0" y="0" width="30" height="45">
<path d="M29.5 0.5H0.5V44.5H29.5V0.5Z" fill="white"/>
</mask>
<g mask="url(#mask0_3174_15376)">
<path d="M7.74986 44.5007C11.7518 44.5007 14.9997 41.2153 14.9997 37.1673V29.834H7.74986C3.74794 29.834 0.5 33.1193 0.5 37.1673C0.5 41.2153 3.74794 44.5007 7.74986 44.5007Z" fill="#0ACF83"/>
<path d="M0.5 22.4993C0.5 18.4513 3.74794 15.166 7.74986 15.166H14.9997V29.8327H7.74986C3.74794 29.8327 0.5 26.5473 0.5 22.4993Z" fill="#A259FF"/>
<path d="M0.5 7.83333C0.5 3.78533 3.74794 0.5 7.74986 0.5H14.9997V15.1667H7.74986C3.74794 15.1667 0.5 11.8813 0.5 7.83333Z" fill="#F24E1E"/>
<path d="M15 0.5H22.2499C26.2518 0.5 29.4997 3.78533 29.4997 7.83333C29.4997 11.8813 26.2518 15.1667 22.2499 15.1667H15V0.5Z" fill="#FF7262"/>
<path d="M29.4997 22.4993C29.4997 26.5473 26.2518 29.8327 22.2499 29.8327C18.2479 29.8327 15 26.5473 15 22.4993C15 18.4513 18.2479 15.166 22.2499 15.166C26.2518 15.166 29.4997 18.4513 29.4997 22.4993Z" fill="#1ABCFE"/>
</g>
</g>
<defs>
<clipPath id="clip0_3174_15376">
<rect width="29" height="44" fill="white" transform="translate(0.5 0.5)"/>
</clipPath>
</defs>
</svg>
