<svg width="47" height="45" viewBox="0 0 47 45" fill="none" xmlns="http://www.w3.org/2000/svg">
<g clip-path="url(#clip0_3174_15462)">
<mask id="mask0_3174_15462" style="mask-type:luminance" maskUnits="userSpaceOnUse" x="0" y="0" width="47" height="45">
<path d="M46.5 0.5H0.5V44.5H46.5V0.5Z" fill="white"/>
</mask>
<g mask="url(#mask0_3174_15462)">
<path d="M8 9.5L39.5 9V38L30 44H23.5H17.5L4.5 33.5L8 9.5Z" fill="#fff"/>
<path d="M23.5001 0.5C10.7991 0.5 0.5 10.586 0.5 23.0282C0.5 32.9817 7.0902 41.4263 16.2289 44.4051C17.3784 44.6137 17.8004 43.9164 17.8004 43.3213C17.8004 42.7842 17.7789 41.0096 17.7692 39.1273C11.3705 40.4898 10.0203 36.4691 10.0203 36.4691C8.97404 33.8652 7.46646 33.1726 7.46646 33.1726C5.37976 31.7745 7.62387 31.8034 7.62387 31.8034C9.93338 31.9621 11.1495 34.1248 11.1495 34.1248C13.201 37.5688 16.5302 36.5731 17.8427 35.9974C18.0491 34.5416 18.6452 33.5475 19.303 32.985C14.1943 32.4155 8.824 30.4837 8.824 21.8516C8.824 19.392 9.72243 17.3823 11.1937 15.8046C10.9549 15.2372 10.1677 12.946 11.4165 9.84278C11.4165 9.84278 13.348 9.23734 17.7433 12.1521C19.5779 11.6529 21.5455 11.4027 23.5001 11.394C25.4547 11.4027 27.4239 11.6528 29.2619 12.1521C33.6519 9.23752 35.5806 9.84296 35.5806 9.84296C36.8325 12.9458 36.0449 15.2374 35.8061 15.8046C37.2808 17.3823 38.1732 19.392 38.1732 21.8516C38.1732 30.5043 32.7926 32.4095 27.671 32.9673C28.4959 33.6663 29.231 35.0374 29.231 37.1392C29.231 40.1533 29.2044 42.5793 29.2044 43.3213C29.2044 43.921 29.6184 44.6234 30.7843 44.402C39.9179 41.42 46.4998 32.9785 46.4998 23.0284C46.4998 10.586 36.2022 0.5 23.5001 0.5ZM9.11437 32.5918C9.0637 32.7038 8.88383 32.7374 8.72014 32.6605C8.55321 32.5871 8.45959 32.4345 8.5135 32.3222C8.56309 32.2069 8.74332 32.1747 8.90971 32.252C9.07682 32.3256 9.17205 32.4796 9.11437 32.5918ZM10.2457 33.5806C10.1361 33.6802 9.92152 33.6339 9.77598 33.4766C9.62558 33.3196 9.59737 33.1095 9.7086 33.0084C9.8218 32.9088 10.0297 32.9555 10.1804 33.1125C10.331 33.2714 10.3601 33.4799 10.2457 33.5806ZM11.0219 34.8457C10.8809 34.9416 10.6505 34.8517 10.508 34.6514C10.3671 34.4511 10.3671 34.2109 10.5111 34.1146C10.6539 34.0183 10.8809 34.1049 11.0252 34.3038C11.1657 34.5074 11.1658 34.7475 11.0219 34.8457ZM12.3344 36.3109C12.2084 36.4471 11.9398 36.4105 11.7432 36.2247C11.5421 36.043 11.4862 35.7854 11.6127 35.6491C11.7403 35.5126 12.0104 35.5509 12.2084 35.7354C12.4079 35.9167 12.469 36.1763 12.3344 36.3109ZM14.031 36.8055C13.9753 36.982 13.7165 37.0622 13.4562 36.9873C13.196 36.91 13.0258 36.7034 13.0783 36.5251C13.1324 36.3473 13.3922 36.2639 13.6545 36.3442C13.9144 36.4209 14.0851 36.6259 14.031 36.8055ZM15.9615 37.0154C15.968 37.2011 15.7472 37.3551 15.4737 37.3586C15.1988 37.3646 14.9761 37.2143 14.9731 37.0313C14.9731 36.8438 15.1891 36.6912 15.4642 36.6867C15.7376 36.6814 15.9615 36.8306 15.9615 37.0154ZM17.8581 36.9441C17.8908 37.1254 17.7009 37.3116 17.4292 37.3613C17.1624 37.409 16.9151 37.297 16.8812 37.1173C16.8481 36.9315 17.0416 36.7453 17.3081 36.6972C17.5801 36.6509 17.8234 36.7599 17.8581 36.9441Z" fill="#161614"/>
</g>
</g>
<defs>
<clipPath id="clip0_3174_15462">
<rect width="46" height="44" fill="white" transform="translate(0.5 0.5)"/>
</clipPath>
</defs>
</svg>
