<svg width="44" height="44" viewBox="0 0 44 44" fill="none" xmlns="http://www.w3.org/2000/svg">
<g clip-path="url(#clip0_3174_15498)">
<path d="M0 0H44V44H0V0Z" fill="#F7DF1E"/>
<path d="M11.5695 36.7696L14.9365 34.7319C15.5862 35.8836 16.1771 36.8581 17.5946 36.8581C18.9533 36.8581 19.8101 36.3267 19.8101 34.2594V20.2004H23.9449V34.3178C23.9449 38.6004 21.4344 40.5499 17.7718 40.5499C14.4641 40.5499 12.544 38.8368 11.5693 36.7693M26.1907 36.3265L29.5574 34.3773C30.4438 35.8247 31.5957 36.8879 33.6334 36.8879C35.3469 36.8879 36.4393 36.0313 36.4393 34.8498C36.4393 33.4322 35.317 32.9299 33.4267 32.1032L32.3932 31.6598C29.41 30.3901 27.4312 28.7951 27.4312 25.4281C27.4312 22.3268 29.7939 19.9639 33.486 19.9639C36.1146 19.9639 38.0049 20.8796 39.3634 23.2719L36.1439 25.3396C35.4349 24.0696 34.6673 23.5676 33.4858 23.5676C32.2748 23.5676 31.5068 24.3355 31.5068 25.3396C31.5068 26.58 32.2748 27.0824 34.0468 27.8504L35.0805 28.2933C38.5953 29.7998 40.5741 31.3355 40.5741 34.7908C40.5741 38.5126 37.6502 40.5504 33.722 40.5504C29.8824 40.5504 27.4014 38.7192 26.1906 36.3267" fill="black"/>
</g>
<defs>
<clipPath id="clip0_3174_15498">
<rect width="44" height="44" fill="white"/>
</clipPath>
</defs>
</svg>
