<svg width="40" height="41" viewBox="0 0 40 41" fill="none" xmlns="http://www.w3.org/2000/svg">
<g clip-path="url(#clip0_3174_15424)">
<mask id="mask0_3174_15424" style="mask-type:luminance" maskUnits="userSpaceOnUse" x="1" y="1" width="39" height="39">
<path d="M39.3357 1.45508H1.09375V39.544H39.3357V1.45508Z" fill="white"/>
</mask>
<g mask="url(#mask0_3174_15424)">
<path d="M20.0518 1.46582C10.3679 1.46582 10.9726 5.66531 10.9726 5.66531L10.9833 10.0161H20.2244V11.3223H7.31291C7.31291 11.3223 1.11621 10.6195 1.11621 20.3905C1.11621 30.1617 6.52484 29.8152 6.52484 29.8152H9.75269V25.2809C9.75269 25.2809 9.57867 19.8723 15.075 19.8723H24.2405C24.2405 19.8723 29.39 19.9555 29.39 14.8955V6.52911C29.39 6.52911 30.1721 1.46582 20.0518 1.46582ZM14.9562 4.39165C15.1746 4.39145 15.3909 4.43432 15.5927 4.51779C15.7944 4.60127 15.9778 4.72372 16.1322 4.87813C16.2866 5.03255 16.4091 5.21589 16.4925 5.41768C16.576 5.61947 16.6189 5.83574 16.6187 6.05412C16.6189 6.27249 16.576 6.48876 16.4925 6.69055C16.4091 6.89234 16.2866 7.07568 16.1322 7.2301C15.9778 7.38451 15.7944 7.50696 15.5927 7.59044C15.3909 7.67392 15.1746 7.71678 14.9562 7.71659C14.7379 7.71678 14.5216 7.67392 14.3198 7.59044C14.118 7.50696 13.9347 7.38451 13.7802 7.2301C13.6258 7.07568 13.5034 6.89234 13.4199 6.69055C13.3364 6.48876 13.2936 6.27249 13.2938 6.05412C13.2936 5.83574 13.3364 5.61947 13.4199 5.41768C13.5034 5.21589 13.6258 5.03255 13.7802 4.87813C13.9347 4.72372 14.118 4.60127 14.3198 4.51779C14.5216 4.43432 14.7379 4.39145 14.9562 4.39165Z" fill="url(#paint0_linear_3174_15424)"/>
<path d="M20.328 39.4134C30.0118 39.4134 29.4072 35.2139 29.4072 35.2139L29.3964 30.8632H20.1551V29.557H33.0667C33.0667 29.557 39.2634 30.2598 39.2634 20.4886C39.2634 10.7175 33.8548 11.064 33.8548 11.064H30.6269V15.5981C30.6269 15.5981 30.8009 21.0067 25.3046 21.0067H16.1391C16.1391 21.0067 10.9896 20.9235 10.9896 25.9837V34.3502C10.9896 34.3502 10.2078 39.4134 20.328 39.4134ZM25.4235 36.4878C25.2051 36.488 24.9889 36.4452 24.7871 36.3617C24.5853 36.2782 24.4019 36.1558 24.2475 36.0014C24.0931 35.8469 23.9707 35.6636 23.8872 35.4618C23.8037 35.26 23.7608 35.0438 23.761 34.8254C23.7608 34.607 23.8037 34.3907 23.8871 34.1889C23.9706 33.9871 24.0931 33.8037 24.2475 33.6493C24.4019 33.4949 24.5852 33.3724 24.787 33.2889C24.9888 33.2054 25.2051 33.1626 25.4235 33.1628C25.6419 33.1626 25.8582 33.2054 26.0599 33.2889C26.2617 33.3724 26.4451 33.4948 26.5995 33.6492C26.7539 33.8037 26.8764 33.987 26.9598 34.1888C27.0433 34.3906 27.0862 34.6069 27.086 34.8252C27.0862 35.0436 27.0433 35.2599 26.9598 35.4617C26.8764 35.6634 26.7539 35.8468 26.5995 36.0012C26.4451 36.1556 26.2617 36.2781 26.0599 36.3615C25.8582 36.445 25.6419 36.488 25.4235 36.4878Z" fill="url(#paint1_linear_3174_15424)"/>
</g>
</g>
<defs>
<linearGradient id="paint0_linear_3174_15424" x1="367.697" y1="342.783" x2="2258.1" y2="2214.32" gradientUnits="userSpaceOnUse">
<stop stop-color="#387EB8"/>
<stop offset="1" stop-color="#366994"/>
</linearGradient>
<linearGradient id="paint1_linear_3174_15424" x1="552.065" y1="594.495" x2="2582.14" y2="2513.59" gradientUnits="userSpaceOnUse">
<stop stop-color="#FFE052"/>
<stop offset="1" stop-color="#FFC331"/>
</linearGradient>
<clipPath id="clip0_3174_15424">
<rect width="39" height="40" fill="white" transform="translate(0.5 0.5)"/>
</clipPath>
</defs>
</svg>
