<svg width="46" height="53" viewBox="0 0 46 53" fill="none" xmlns="http://www.w3.org/2000/svg">
<g clip-path="url(#clip0_3174_15501)">
<mask id="mask0_3174_15501" style="mask-type:luminance" maskUnits="userSpaceOnUse" x="0" y="0" width="47" height="53">
<path d="M46.8287 0H0V53H46.8287V0Z" fill="white"/>
</mask>
<g mask="url(#mask0_3174_15501)">
<path d="M46.8287 26.5066C46.8287 23.4253 42.9438 20.5052 36.9876 18.6944C38.3621 12.6646 37.7512 7.86731 35.0595 6.33142C34.439 5.97115 33.7136 5.8005 32.9214 5.8005V7.91471C33.3605 7.91471 33.7136 8.00004 34.0095 8.16121C35.3076 8.90072 35.8709 11.7165 35.4317 15.3381C35.3267 16.2294 35.1549 17.1679 34.9449 18.1255C33.0741 17.6704 31.0314 17.3197 28.8838 17.0922C27.5951 15.3381 26.2588 13.7455 24.913 12.3517C28.0247 9.47905 30.9455 7.90524 32.9309 7.90524V5.79102C30.306 5.79102 26.8697 7.64926 23.3952 10.8727C19.9208 7.66821 16.4846 5.82894 13.8597 5.82894V7.94316C15.8355 7.94316 18.7658 9.50748 21.8776 12.3612C20.5412 13.7549 19.205 15.3381 17.9354 17.0922C15.7782 17.3197 13.7356 17.6704 11.8647 18.135C11.6452 17.1869 11.4828 16.2673 11.3684 15.3856C10.9197 11.764 11.4733 8.94812 12.7619 8.19913C13.0483 8.02849 13.4205 7.95263 13.8597 7.95263V5.83842C13.0578 5.83842 12.3323 6.00908 11.7024 6.36935C9.02021 7.90524 8.41886 12.693 9.80291 18.7039C3.8658 20.5242 0 23.4348 0 26.5066C0 29.5878 3.88489 32.5079 9.84109 34.3187C8.46658 40.3485 9.07747 45.1458 11.7692 46.6816C12.3897 47.0419 13.1151 47.2126 13.9169 47.2126C16.5418 47.2126 19.9781 45.3544 23.4526 42.1309C26.927 45.3355 30.3632 47.1746 32.9882 47.1746C33.79 47.1746 34.5154 47.004 35.1454 46.6437C37.8276 45.1079 38.4289 40.3201 37.0449 34.3092C42.9629 32.4985 46.8287 29.5783 46.8287 26.5066ZM34.4009 20.1829C34.0477 21.4059 33.6087 22.6668 33.1123 23.9278C32.7209 23.1693 32.3105 22.4109 31.8619 21.6524C31.4228 20.894 30.955 20.1545 30.4873 19.4339C31.8427 19.6329 33.1505 19.8794 34.4009 20.1829ZM30.0292 30.28C29.2847 31.5598 28.5211 32.7734 27.7288 33.9016C26.3066 34.0248 24.8652 34.0911 23.4144 34.0911C21.973 34.0911 20.5317 34.0248 19.119 33.911C18.3268 32.7829 17.5536 31.5788 16.809 30.3084C16.0837 29.0664 15.425 27.8055 14.8236 26.535C15.4155 25.2646 16.0837 23.9942 16.7995 22.7522C17.544 21.4722 18.3076 20.2587 19.0999 19.1305C20.5221 19.0072 21.9635 18.9409 23.4144 18.9409C24.8557 18.9409 26.297 19.0072 27.7097 19.121C28.5019 20.2492 29.2751 21.4533 30.0197 22.7237C30.7451 23.9657 31.4037 25.2267 32.0051 26.4971C31.4037 27.7675 30.7451 29.0379 30.0292 30.28ZM33.1123 29.0474C33.6277 30.3178 34.0668 31.5882 34.4295 32.8207C33.1791 33.1242 31.8619 33.3802 30.4969 33.5792C30.9646 32.8492 31.4323 32.1002 31.8714 31.3323C32.3105 30.5738 32.7209 29.8059 33.1123 29.0474ZM23.4335 39.1635C22.5458 38.2532 21.658 37.2388 20.7798 36.1296C21.6389 36.1674 22.5171 36.196 23.4048 36.196C24.3021 36.196 25.1898 36.1769 26.0584 36.1296C25.1993 37.2388 24.3116 38.2532 23.4335 39.1635ZM16.3319 33.5792C14.9765 33.3802 13.6687 33.1337 12.4183 32.8302C12.7715 31.6072 13.2105 30.3463 13.7068 29.0853C14.0983 29.8438 14.5087 30.6022 14.9573 31.3607C15.4059 32.1191 15.8641 32.8586 16.3319 33.5792ZM23.3857 13.8496C24.2734 14.7599 25.1612 15.7743 26.0393 16.8835C25.1802 16.8457 24.3021 16.8171 23.4144 16.8171C22.5171 16.8171 21.6294 16.8362 20.7608 16.8835C21.6198 15.7743 22.5075 14.7599 23.3857 13.8496ZM16.3222 19.4339C15.8546 20.1639 15.3869 20.9129 14.9477 21.6808C14.5087 22.4393 14.0983 23.1977 13.7068 23.9562C13.1914 22.6858 12.7524 21.4154 12.3897 20.1829C13.6401 19.8889 14.9573 19.6329 16.3222 19.4339ZM7.68388 31.3038C4.30488 29.8722 2.11903 27.995 2.11903 26.5066C2.11903 25.0181 4.30488 23.1314 7.68388 21.7093C8.50476 21.3584 9.40201 21.0456 10.3279 20.7517C10.872 22.6099 11.5878 24.544 12.4755 26.5255C11.5974 28.4975 10.8911 30.4221 10.3565 32.2709C9.41156 31.9769 8.51431 31.6547 7.68388 31.3038ZM12.8192 44.8519C11.5211 44.1124 10.9579 41.2966 11.397 37.6749C11.502 36.7837 11.6738 35.8452 11.8838 34.8876C13.7546 35.3427 15.7973 35.6934 17.945 35.9209C19.2336 37.6749 20.5699 39.2677 21.9157 40.6614C18.804 43.5341 15.8832 45.1079 13.8978 45.1079C13.4682 45.0984 13.1056 45.0131 12.8192 44.8519ZM35.4603 37.6275C35.909 41.2491 35.3554 44.0649 34.0668 44.8139C33.7804 44.9846 33.4082 45.0604 32.969 45.0604C30.9933 45.0604 28.0629 43.4962 24.9511 40.6425C26.2875 39.2487 27.6237 37.6654 28.8933 35.9115C31.0505 35.6839 33.0931 35.3332 34.964 34.8686C35.1835 35.8262 35.3554 36.7458 35.4603 37.6275ZM39.1353 31.3038C38.3143 31.6547 37.4171 31.9675 36.4913 32.2614C35.9471 30.4032 35.2313 28.4691 34.3435 26.4876C35.2218 24.5156 35.9281 22.591 36.4627 20.7422C37.4076 21.0362 38.3048 21.3584 39.1448 21.7093C42.5238 23.1409 44.7097 25.0181 44.7097 26.5066C44.7001 27.995 42.5142 29.8817 39.1353 31.3038Z" fill="#61DAFB"/>
<path d="M23.4051 30.8392C25.8143 30.8392 27.7674 28.8995 27.7674 26.5065C27.7674 24.1137 25.8143 22.1738 23.4051 22.1738C20.996 22.1738 19.043 24.1137 19.043 26.5065C19.043 28.8995 20.996 30.8392 23.4051 30.8392Z" fill="#61DAFB"/>
</g>
</g>
<defs>
<clipPath id="clip0_3174_15501">
<rect width="46" height="53" fill="white"/>
</clipPath>
</defs>
</svg>
