<svg xmlns="http://www.w3.org/2000/svg" version="1.1" xmlns:xlink="http://www.w3.org/1999/xlink" xmlns:svgjs="http://svgjs.dev/svgjs" width="128" height="128" viewBox="0 0 128 128"><g transform="matrix(0.8046875,0,0,0.8046875,12.760752631578946,16.221485374642832)"><svg viewBox="0 0 95 89" data-background-color="#ffffff" preserveAspectRatio="xMidYMid meet" height="119" width="128" xmlns="http://www.w3.org/2000/svg" xmlns:xlink="http://www.w3.org/1999/xlink"><g id="tight-bounds" transform="matrix(1,0,0,1,-0.24049999999999727,-0.09330679513185203)"><svg viewBox="0 0 95.481 89.18661359026369" height="89.18661359026369" width="95.481"><g><svg viewBox="0 0 95.481 89.18661359026369" height="89.18661359026369" width="95.481"><g><svg viewBox="0 0 95.481 89.18661359026369" height="89.18661359026369" width="95.481"><g id="textblocktransform"><svg viewBox="0 0 95.481 89.18661359026369" height="89.18661359026369" width="95.481" id="textblock"><g><svg viewBox="0 0 95.481 89.18661359026369" height="89.18661359026369" width="95.481"><g><svg viewBox="0 0 95.481 89.18661359026369" height="89.18661359026369" width="95.481"><g><svg xmlns="http://www.w3.org/2000/svg" xmlns:xlink="http://www.w3.org/1999/xlink" version="1.1" x="0" y="0" viewBox="0.7 3.999999999999999 98.6 92.1" enable-background="new 0 0 100 100" xml:space="preserve" height="89.18661359026369" width="95.481" class="icon-icon-0" data-fill-palette-color="accent" id="icon-0"><path d="M66.5 87.4c2.8 0 5.2-2.3 5.2-5.2V58.6c0-2.8-2.3-5.2-5.2-5.2H33.5c-2.8 0-5.2 2.3-5.2 5.2v23.7c0 2.8 2.3 5.2 5.2 5.2h14.7v5h-4.9c-1 0-1.8 0.8-1.8 1.8s0.8 1.8 1.8 1.8h13.3c1 0 1.8-0.8 1.8-1.8s-0.8-1.8-1.8-1.8h-4.9v-5H66.5zM31.9 82.3V58.6c0-0.9 0.7-1.7 1.7-1.7h32.9c0.9 0 1.7 0.7 1.7 1.7v23.7c0 0.9-0.7 1.7-1.7 1.7H33.5C32.6 83.9 31.9 83.2 31.9 82.3zM94.2 4H61.2c-2.8 0-5.2 2.3-5.2 5.2v23.7c0 2.8 2.3 5.2 5.2 5.2h14.7v5h-4.9c-1 0-1.8 0.8-1.8 1.8s0.8 1.8 1.8 1.8h13.3c1 0 1.8-0.8 1.8-1.8S85.3 43 84.3 43h-4.9v-5h14.7c2.8 0 5.2-2.3 5.2-5.2V9.2C99.3 6.3 97 4 94.2 4zM95.8 32.8c0 0.9-0.7 1.7-1.7 1.7H61.2c-0.9 0-1.7-0.7-1.7-1.7V9.2c0-0.9 0.7-1.7 1.7-1.7h32.9c0.9 0 1.7 0.7 1.7 1.7V32.8zM30.7 44.8c0-1-0.8-1.8-1.8-1.8h-4.9v-5h14.7c2.8 0 5.2-2.3 5.2-5.2V9.2c0-2.8-2.3-5.2-5.2-5.2H5.8C3 4 0.7 6.3 0.7 9.2v23.7C0.7 35.7 3 38 5.8 38h14.7v5h-4.9c-1 0-1.8 0.8-1.8 1.8s0.8 1.8 1.8 1.8h13.3C29.9 46.5 30.7 45.8 30.7 44.8zM4.2 32.8V9.2c0-0.9 0.7-1.7 1.7-1.7h32.9c0.9 0 1.7 0.7 1.7 1.7v23.7c0 0.9-0.7 1.7-1.7 1.7H5.8C4.9 34.5 4.2 33.8 4.2 32.8zM93.7 55.2v26.9c0 1-0.8 1.8-1.8 1.8H79.2c-1 0-1.8-0.8-1.8-1.8s0.8-1.8 1.8-1.8h11.1V55.2c0-1 0.8-1.8 1.8-1.8S93.7 54.2 93.7 55.2zM9.8 55.2v25.2h11.1c1 0 1.8 0.8 1.8 1.8s-0.8 1.8-1.8 1.8H8c-1 0-1.8-0.8-1.8-1.8V55.2c0-1 0.8-1.8 1.8-1.8S9.8 54.2 9.8 55.2z" fill="#2563eb" data-fill-palette-color="accent"></path></svg></g></svg></g></svg></g></svg></g></svg></g><g></g></svg></g><defs></defs></svg><rect width="95.481" height="89.18661359026369" fill="none" stroke="none" visibility="hidden"></rect></g></svg></g></svg>